<svg xmlns="http://www.w3.org/2000/svg" xmlns:xlink="http://www.w3.org/1999/xlink" width="500" zoomAndPan="magnify" viewBox="0 0 375 374.999991" height="500" preserveAspectRatio="xMidYMid meet" version="1.0"><defs><clipPath id="7a5f874b59"><path d="M 49.074219 141 L 325.824219 141 L 325.824219 232 L 49.074219 232 Z M 49.074219 141 " clip-rule="nonzero"/></clipPath></defs><g clip-path="url(#7a5f874b59)"><path fill="#3cc56d" d="M 51.027344 158.332031 C 52.980469 160.277344 62.738281 166.125 64.683594 171.972656 C 66.636719 177.808594 70.546875 215.183594 82.253906 224.929688 C 94.328125 234.960938 139.878906 231.222656 148.597656 226.882812 C 168.117188 217.152344 170.511719 185.722656 173.960938 171.964844 C 175.910156 164.171875 187.617188 164.171875 187.617188 164.171875 C 187.617188 164.171875 199.328125 164.171875 201.28125 171.957031 C 204.734375 185.722656 207.144531 217.242188 226.644531 226.957031 C 235.375 231.3125 280.921875 235.050781 293.011719 225.019531 C 304.707031 215.273438 308.605469 177.800781 310.558594 171.957031 C 312.5 166.117188 322.269531 160.269531 324.214844 158.324219 C 326.179688 156.378906 326.179688 148.585938 324.214844 146.632812 C 320.316406 142.742188 274.269531 139.273438 224.691406 144.6875 C 214.796875 145.769531 211.035156 148.578125 187.609375 148.578125 C 164.199219 148.578125 160.421875 145.761719 150.535156 144.6875 C 100.988281 139.28125 54.9375 142.75 51.027344 146.640625 C 49.082031 148.585938 49.082031 156.386719 51.027344 158.332031 Z M 51.027344 158.332031 " fill-opacity="1" fill-rule="evenodd"/></g></svg>