<svg xmlns="http://www.w3.org/2000/svg" xmlns:xlink="http://www.w3.org/1999/xlink" width="500" zoomAndPan="magnify" viewBox="0 0 375 374.999991" height="500" preserveAspectRatio="xMidYMid meet" version="1.0"><defs><clipPath id="7f15ed58e7"><path d="M 87 67 L 295.566406 67 L 295.566406 308 L 87 308 Z M 87 67 " clip-rule="nonzero"/></clipPath></defs><g clip-path="url(#7f15ed58e7)"><path fill="#3cc56d" d="M 290.972656 125.847656 C 283.6875 125.328125 276.402344 131.574219 274.320312 139.378906 L 260.789062 178.40625 C 257.148438 185.167969 251.945312 179.445312 252.464844 176.324219 C 252.984375 173.203125 263.390625 98.789062 263.390625 98.789062 C 264.953125 90.984375 263.914062 83.175781 256.105469 81.617188 C 248.300781 80.054688 242.574219 85.78125 241.015625 93.585938 C 241.015625 93.585938 230.085938 163.316406 226.960938 170.082031 C 223.839844 176.847656 220.71875 174.765625 220.71875 169.558594 C 220.71875 166.4375 225.921875 82.65625 225.921875 82.65625 C 226.445312 74.851562 223.320312 67.566406 215.515625 67.042969 C 207.710938 66.523438 204.066406 72.769531 203.546875 80.574219 C 203.546875 80.574219 195.742188 162.273438 195.222656 168 C 194.699219 173.722656 189.496094 174.242188 188.457031 168 C 187.417969 161.753906 184.292969 95.148438 184.292969 95.148438 C 184.292969 87.339844 180.652344 80.578125 172.84375 80.578125 C 165.035156 80.578125 161.394531 87.339844 161.394531 95.148438 C 161.394531 95.148438 160.875 163.316406 161.394531 175.804688 C 161.914062 189.335938 162.433594 223.160156 153.589844 224.199219 C 145.261719 225.242188 132.253906 215.355469 124.96875 204.425781 C 118.726562 195.582031 107.796875 189.855469 96.347656 191.417969 C 79.695312 193.5 89.582031 206.511719 101.03125 219 C 125.488281 245.539062 131.734375 259.589844 143.703125 277.28125 C 151.507812 289.25 169.722656 308.503906 203.027344 307.984375 C 247.777344 307.460938 272.757812 289.769531 278.484375 212.753906 C 279.523438 195.582031 292.535156 141.460938 294.613281 135.21875 C 295.652344 134.175781 295.136719 125.847656 290.972656 125.847656 Z M 290.972656 125.847656 " fill-opacity="1" fill-rule="nonzero"/></g></svg>