<svg xmlns="http://www.w3.org/2000/svg" xmlns:xlink="http://www.w3.org/1999/xlink" width="500" zoomAndPan="magnify" viewBox="0 0 375 374.999991" height="500" preserveAspectRatio="xMidYMid meet" version="1.0"><defs><clipPath id="c04007b1be"><path d="M 69 109.449219 L 307 109.449219 L 307 265.449219 L 69 265.449219 Z M 69 109.449219 " clip-rule="nonzero"/></clipPath></defs><g clip-path="url(#c04007b1be)"><path fill="#3cc56d" d="M 190.464844 265.464844 C 177.71875 265.355469 165.011719 264.640625 152.351562 263.148438 C 144.222656 262.191406 136.09375 261.199219 127.988281 260.066406 C 123.597656 259.457031 119.453125 257.792969 115.203125 256.597656 C 109.34375 254.949219 103.445312 253.460938 97.835938 251.015625 C 88.152344 246.792969 80.261719 240.226562 73.535156 232.253906 C 68.152344 225.875 67.625 217.949219 71.636719 210.628906 C 72.515625 209.023438 73.578125 207.542969 74.644531 206.0625 C 77.941406 201.503906 82.75 199.71875 87.996094 198.835938 C 94.359375 197.761719 100.6875 198.132812 106.917969 199.804688 C 107.917969 200.070312 108.164062 199.84375 108.351562 198.910156 C 109.628906 192.570312 110.128906 186.152344 110.425781 179.710938 C 110.753906 172.574219 110.757812 165.421875 111.378906 158.300781 C 112.285156 147.875 115.195312 138.191406 122.246094 130.128906 C 127.835938 123.734375 134.949219 119.648438 142.820312 116.769531 C 151.652344 113.539062 160.808594 111.75 170.125 110.679688 C 178.164062 109.753906 186.230469 109.472656 194.3125 109.769531 C 207.449219 110.257812 220.355469 112.074219 232.730469 116.753906 C 238.835938 119.0625 244.570312 122.054688 249.371094 126.566406 C 255.296875 132.136719 258.746094 139.128906 260.757812 146.90625 C 262.429688 153.359375 263.101562 159.957031 263.539062 166.585938 C 264.191406 176.464844 264.40625 186.367188 265.203125 196.238281 C 265.40625 198.800781 265.378906 198.777344 267.96875 198.636719 C 270.34375 198.511719 272.632812 197.820312 274.988281 197.621094 C 286.929688 196.609375 296.390625 200.820312 303.335938 210.777344 C 307.367188 216.554688 307.164062 222.480469 304.644531 228.546875 C 301.648438 235.773438 296.355469 241.125 289.957031 245.445312 C 282.777344 250.296875 274.816406 253.421875 266.566406 255.878906 C 256.65625 258.832031 246.511719 260.683594 236.296875 262.179688 C 228.5 263.320312 220.6875 264.316406 212.816406 264.832031 C 205.375 265.320312 197.925781 265.53125 190.464844 265.464844 Z M 190.464844 265.464844 " fill-opacity="1" fill-rule="nonzero"/></g></svg>