<svg xmlns="http://www.w3.org/2000/svg" xmlns:xlink="http://www.w3.org/1999/xlink" width="500" zoomAndPan="magnify" viewBox="0 0 375 374.999991" height="500" preserveAspectRatio="xMidYMid meet" version="1.0"><defs><clipPath id="ad2fe63e63"><path d="M 187.5 0 C 83.945312 0 0 83.945312 0 187.5 C 0 291.054688 83.945312 375 187.5 375 C 291.054688 375 375 291.054688 375 187.5 C 375 83.945312 291.054688 0 187.5 0 Z M 187.5 0 " clip-rule="nonzero"/></clipPath><clipPath id="31ccbb23fa"><path d="M 38.902344 38.902344 L 336.097656 38.902344 L 336.097656 336.097656 L 38.902344 336.097656 Z M 38.902344 38.902344 " clip-rule="nonzero"/></clipPath><clipPath id="9530b4c6e6"><path d="M 187.5 38.902344 C 105.433594 38.902344 38.902344 105.433594 38.902344 187.5 C 38.902344 269.566406 105.433594 336.097656 187.5 336.097656 C 269.566406 336.097656 336.097656 269.566406 336.097656 187.5 C 336.097656 105.433594 269.566406 38.902344 187.5 38.902344 Z M 187.5 38.902344 " clip-rule="nonzero"/></clipPath></defs><g clip-path="url(#ad2fe63e63)"><rect x="-37.5" width="450" fill="#ffffff" y="-37.499999" height="449.999989" fill-opacity="1"/></g><g clip-path="url(#31ccbb23fa)"><g clip-path="url(#9530b4c6e6)"><path fill="#55996f" d="M 38.902344 38.902344 L 336.097656 38.902344 L 336.097656 336.097656 L 38.902344 336.097656 Z M 38.902344 38.902344 " fill-opacity="1" fill-rule="nonzero"/></g></g></svg>