<svg xmlns="http://www.w3.org/2000/svg" xmlns:xlink="http://www.w3.org/1999/xlink" width="500" zoomAndPan="magnify" viewBox="0 0 375 374.999991" height="500" preserveAspectRatio="xMidYMid meet" version="1.0"><defs><clipPath id="ac99fa594b"><path d="M 89.53125 91.53125 L 285.464844 91.53125 L 285.464844 113.75 L 89.53125 113.75 Z M 89.53125 91.53125 " clip-rule="nonzero"/></clipPath><clipPath id="baa48f0daa"><path d="M 151 68.351562 L 223 68.351562 L 223 101 L 151 101 Z M 151 68.351562 " clip-rule="nonzero"/></clipPath><clipPath id="bede545a77"><path d="M 100.15625 123.40625 L 274.503906 123.40625 L 274.503906 306.636719 L 100.15625 306.636719 Z M 100.15625 123.40625 " clip-rule="nonzero"/></clipPath></defs><rect x="-37.5" width="450" fill="#ffffff" y="-37.499999" height="449.999989" fill-opacity="1"/><rect x="-37.5" width="450" fill="#3cc56d" y="-37.499999" height="449.999989" fill-opacity="1"/><g clip-path="url(#ac99fa594b)"><path fill="#ffffff" d="M 274.578125 113.683594 L 100.417969 113.683594 C 94.402344 113.683594 89.53125 108.808594 89.53125 102.796875 C 89.53125 96.785156 94.402344 91.910156 100.417969 91.910156 L 274.578125 91.910156 C 280.59375 91.910156 285.464844 96.785156 285.464844 102.796875 C 285.464844 108.808594 280.59375 113.683594 274.578125 113.683594 " fill-opacity="1" fill-rule="nonzero"/></g><g clip-path="url(#baa48f0daa)"><path fill="#ffffff" d="M 217.023438 100.410156 C 213.730469 100.410156 211.058594 97.742188 211.058594 94.445312 L 211.058594 80.28125 L 163.640625 80.28125 L 163.640625 94.445312 C 163.640625 97.742188 160.96875 100.410156 157.675781 100.410156 C 154.378906 100.410156 151.710938 97.742188 151.710938 94.445312 L 151.710938 75.820312 C 151.710938 71.480469 155.589844 68.351562 160.730469 68.351562 L 214.214844 68.351562 C 219.214844 68.351562 222.988281 71.480469 222.988281 75.820312 L 222.988281 94.445312 C 222.988281 97.742188 220.316406 100.410156 217.023438 100.410156 " fill-opacity="1" fill-rule="nonzero"/></g><g clip-path="url(#bede545a77)"><path fill="#ffffff" d="M 241.914062 143.675781 L 230.578125 286.824219 C 230.414062 288.929688 228.648438 290.53125 226.570312 290.53125 C 226.464844 290.53125 226.355469 290.527344 226.25 290.519531 C 224.03125 290.34375 222.378906 288.402344 222.550781 286.1875 L 233.886719 143.039062 C 234.058594 140.820312 236 139.167969 238.214844 139.34375 C 240.433594 139.519531 242.085938 141.457031 241.914062 143.675781 Z M 191.375 286.695312 C 191.375 288.917969 189.570312 290.828125 187.351562 290.828125 C 187.347656 290.828125 187.347656 290.828125 187.34375 290.828125 C 185.121094 290.53125 183.320312 288.875 183.324219 286.648438 L 183.472656 143.578125 C 183.476562 141.355469 185.277344 139.628906 187.5 139.628906 C 187.5 139.628906 187.5 139.628906 187.503906 139.628906 C 189.726562 139.628906 191.527344 141.324219 191.523438 143.546875 Z M 148.746094 290.519531 C 148.640625 290.527344 148.53125 290.53125 148.425781 290.53125 C 146.347656 290.53125 144.585938 288.929688 144.417969 286.824219 L 133.082031 143.675781 C 132.910156 141.457031 134.566406 139.519531 136.78125 139.34375 C 138.996094 139.167969 140.933594 140.820312 141.109375 143.039062 L 152.445312 286.1875 C 152.621094 288.402344 150.964844 290.34375 148.746094 290.519531 Z M 100.5625 123.523438 L 119 294.789062 C 119.769531 301.304688 125.765625 306.636719 132.328125 306.636719 L 242.671875 306.636719 C 249.230469 306.636719 255.226562 301.304688 255.996094 294.789062 L 274.433594 123.523438 L 100.5625 123.523438 " fill-opacity="1" fill-rule="nonzero"/></g></svg>