<svg xmlns="http://www.w3.org/2000/svg" xmlns:xlink="http://www.w3.org/1999/xlink" width="500" zoomAndPan="magnify" viewBox="0 0 375 374.999991" height="500" preserveAspectRatio="xMidYMid meet" version="1.0"><defs><clipPath id="a8a1951196"><path d="M 81.476562 84 L 293.511719 84 L 293.511719 107.691406 L 81.476562 107.691406 Z M 81.476562 84 " clip-rule="nonzero"/></clipPath><clipPath id="7ccbfa9ebe"><path d="M 148 58.5625 L 226 58.5625 L 226 94 L 148 94 Z M 148 58.5625 " clip-rule="nonzero"/></clipPath><clipPath id="8c1ba923a1"><path d="M 93 118.144531 L 281.648438 118.144531 L 281.648438 316.429688 L 93 316.429688 Z M 93 118.144531 " clip-rule="nonzero"/></clipPath></defs><g clip-path="url(#a8a1951196)"><path fill="#55996f" d="M 281.734375 107.621094 L 93.257812 107.621094 C 86.75 107.621094 81.476562 102.347656 81.476562 95.839844 C 81.476562 89.335938 86.75 84.0625 93.257812 84.0625 L 281.734375 84.0625 C 288.238281 84.0625 293.515625 89.335938 293.515625 95.839844 C 293.515625 102.347656 288.238281 107.621094 281.734375 107.621094 " fill-opacity="1" fill-rule="nonzero"/></g><g clip-path="url(#7ccbfa9ebe)"><path fill="#55996f" d="M 219.449219 93.257812 C 215.882812 93.257812 212.992188 90.371094 212.992188 86.804688 L 212.992188 71.476562 L 161.675781 71.476562 L 161.675781 86.804688 C 161.675781 90.371094 158.789062 93.257812 155.222656 93.257812 C 151.65625 93.257812 148.769531 90.371094 148.769531 86.804688 L 148.769531 66.648438 C 148.769531 61.949219 152.964844 58.566406 158.527344 58.566406 L 216.40625 58.566406 C 221.820312 58.566406 225.902344 61.949219 225.902344 66.648438 L 225.902344 86.804688 C 225.902344 90.371094 223.011719 93.257812 219.449219 93.257812 " fill-opacity="1" fill-rule="nonzero"/></g><g clip-path="url(#8c1ba923a1)"><path fill="#55996f" d="M 246.382812 140.078125 L 234.117188 294.988281 C 233.9375 297.269531 232.03125 299.003906 229.78125 299.003906 C 229.664062 299.003906 229.546875 298.996094 229.429688 298.988281 C 227.03125 298.800781 225.242188 296.699219 225.429688 294.300781 L 237.695312 139.390625 C 237.882812 136.992188 239.984375 135.199219 242.382812 135.390625 C 244.78125 135.582031 246.570312 137.679688 246.382812 140.078125 Z M 191.691406 294.851562 C 191.691406 297.253906 189.738281 299.324219 187.335938 299.324219 C 187.332031 299.324219 187.332031 299.324219 187.328125 299.324219 C 184.925781 299.003906 182.976562 297.207031 182.980469 294.800781 L 183.140625 139.972656 C 183.140625 137.566406 185.09375 135.699219 187.496094 135.699219 C 187.5 135.699219 187.5 135.699219 187.5 135.699219 C 189.90625 135.699219 191.855469 137.535156 191.855469 139.9375 Z M 145.5625 298.988281 C 145.445312 298.996094 145.328125 299.003906 145.214844 299.003906 C 142.960938 299.003906 141.054688 297.269531 140.875 294.988281 L 128.609375 140.078125 C 128.421875 137.679688 130.210938 135.582031 132.613281 135.390625 C 135.007812 135.203125 137.105469 136.992188 137.296875 139.390625 L 149.5625 294.300781 C 149.753906 296.699219 147.960938 298.800781 145.5625 298.988281 Z M 93.417969 118.273438 L 113.371094 303.609375 C 114.199219 310.660156 120.691406 316.429688 127.792969 316.429688 L 247.203125 316.429688 C 254.304688 316.429688 260.792969 310.660156 261.625 303.609375 L 281.578125 118.273438 L 93.417969 118.273438 " fill-opacity="1" fill-rule="nonzero"/></g></svg>