<svg xmlns="http://www.w3.org/2000/svg" xmlns:xlink="http://www.w3.org/1999/xlink" width="500" zoomAndPan="magnify" viewBox="0 0 375 374.999991" height="500" preserveAspectRatio="xMidYMid meet" version="1.0"><defs><clipPath id="8fbab61c3d"><path d="M 95 96.113281 L 189.300781 96.113281 L 189.300781 279.113281 L 95 279.113281 Z M 95 96.113281 " clip-rule="nonzero"/></clipPath><clipPath id="03b466bb8a"><path d="M 198.609375 193.027344 L 284.699219 193.027344 L 284.699219 279.117188 L 198.609375 279.117188 Z M 198.609375 193.027344 " clip-rule="nonzero"/></clipPath><clipPath id="2dc374913b"><path d="M 241.652344 193.027344 C 217.878906 193.027344 198.609375 212.300781 198.609375 236.074219 C 198.609375 259.847656 217.878906 279.117188 241.652344 279.117188 C 265.425781 279.117188 284.699219 259.847656 284.699219 236.074219 C 284.699219 212.300781 265.425781 193.027344 241.652344 193.027344 Z M 241.652344 193.027344 " clip-rule="nonzero"/></clipPath><clipPath id="152dfb7f12"><path d="M 198.609375 95.882812 L 284.699219 95.882812 L 284.699219 181.972656 L 198.609375 181.972656 Z M 198.609375 95.882812 " clip-rule="nonzero"/></clipPath><clipPath id="a0eedfe2d1"><path d="M 241.652344 95.882812 C 217.878906 95.882812 198.609375 115.152344 198.609375 138.925781 C 198.609375 162.699219 217.878906 181.972656 241.652344 181.972656 C 265.425781 181.972656 284.699219 162.699219 284.699219 138.925781 C 284.699219 115.152344 265.425781 95.882812 241.652344 95.882812 Z M 241.652344 95.882812 " clip-rule="nonzero"/></clipPath></defs><g clip-path="url(#8fbab61c3d)"><path fill="#3cc56d" d="M 189.15625 95.878906 L 189.15625 279.113281 C 156.476562 278.316406 130.296875 265.722656 112.433594 238.8125 C 91.507812 207.289062 90.410156 173.929688 109.367188 141.242188 C 126.683594 111.390625 153.96875 97.167969 189.152344 95.875 Z M 189.15625 95.878906 " fill-opacity="1" fill-rule="nonzero"/></g><g clip-path="url(#03b466bb8a)"><g clip-path="url(#2dc374913b)"><path fill="#3cc56d" d="M 198.609375 193.027344 L 284.699219 193.027344 L 284.699219 279.117188 L 198.609375 279.117188 Z M 198.609375 193.027344 " fill-opacity="1" fill-rule="nonzero"/></g></g><g clip-path="url(#152dfb7f12)"><g clip-path="url(#a0eedfe2d1)"><path fill="#3cc56d" d="M 198.609375 95.882812 L 284.699219 95.882812 L 284.699219 181.972656 L 198.609375 181.972656 Z M 198.609375 95.882812 " fill-opacity="1" fill-rule="nonzero"/></g></g></svg>