<svg xmlns="http://www.w3.org/2000/svg" xmlns:xlink="http://www.w3.org/1999/xlink" width="500" zoomAndPan="magnify" viewBox="0 0 375 374.999991" height="500" preserveAspectRatio="xMidYMid meet" version="1.0"><defs><clipPath id="142249ac0d"><path d="M 106.605469 60.105469 L 268.605469 60.105469 L 268.605469 315 L 106.605469 315 Z M 106.605469 60.105469 " clip-rule="nonzero"/></clipPath></defs><g clip-path="url(#142249ac0d)"><path fill="#3cc56d" d="M 257.808594 165.398438 C 260.988281 151.605469 263.863281 139.839844 263 125.410156 C 262.246094 112.902344 257.773438 102.21875 249.441406 92.9375 C 233.601562 75.285156 219.132812 62.355469 187.46875 60.253906 C 156.5 62.355469 141.335938 75.285156 125.496094 92.9375 C 117.160156 102.21875 112.691406 112.902344 111.9375 125.410156 C 111.074219 139.839844 113.949219 151.605469 117.128906 165.398438 C 109.992188 163.417969 106.578125 163.199219 106.933594 172.050781 C 107.308594 181.453125 109.160156 191.015625 114.515625 198.679688 C 119.367188 205.613281 121.089844 208.269531 125.992188 212.242188 C 131.753906 216.914062 130.972656 228.460938 134.015625 235.296875 C 136.710938 241.355469 141.703125 245.304688 143.277344 251.734375 C 145.398438 260.414062 144.855469 270.488281 143.136719 279.164062 C 141.605469 286.890625 137.257812 291.519531 134.433594 298.328125 C 133.0625 301.628906 132.597656 299.648438 134.457031 302.5 C 135.339844 303.855469 138.09375 305.046875 139.480469 305.792969 C 147.15625 309.902344 156.226562 311.65625 164.753906 312.890625 C 172.105469 313.949219 179.757812 314.605469 187.46875 314.738281 C 195.179688 314.605469 202.832031 313.949219 210.179688 312.890625 C 218.710938 311.65625 227.78125 309.902344 235.457031 305.792969 C 236.84375 305.046875 239.59375 303.855469 240.476562 302.5 C 242.335938 299.648438 241.871094 301.628906 240.503906 298.328125 C 237.679688 291.519531 233.328125 286.890625 231.800781 279.164062 C 230.082031 270.488281 229.539062 260.414062 231.660156 251.734375 C 233.234375 245.304688 238.226562 241.355469 240.921875 235.296875 C 243.964844 228.460938 243.179688 216.914062 248.941406 212.242188 C 253.847656 208.269531 256.996094 204.414062 260.417969 198.679688 C 265.210938 190.652344 267.625 181.453125 268.003906 172.050781 C 268.359375 163.199219 264.945312 163.417969 257.808594 165.398438 " fill-opacity="1" fill-rule="nonzero"/></g></svg>