<svg xmlns="http://www.w3.org/2000/svg" xmlns:xlink="http://www.w3.org/1999/xlink" width="500" zoomAndPan="magnify" viewBox="0 0 375 374.999991" height="500" preserveAspectRatio="xMidYMid meet" version="1.0"><defs><clipPath id="90e51323b4"><path d="M 44 0 L 331 0 L 331 375 L 44 375 Z M 44 0 " clip-rule="nonzero"/></clipPath><clipPath id="4eeb85575d"><path d="M 43.59375 75 L 43.59375 300 C 43.59375 341.421875 77.171875 375 118.59375 375 L 256.40625 375 C 297.828125 375 331.40625 341.421875 331.40625 300 L 331.40625 75 C 331.40625 33.578125 297.828125 0 256.40625 0 L 118.59375 0 C 77.171875 0 43.59375 33.578125 43.59375 75 Z M 43.59375 75 " clip-rule="nonzero"/></clipPath><clipPath id="742ffd1fcd"><path d="M 104.789062 72.632812 L 270.207031 72.632812 L 270.207031 91.390625 L 104.789062 91.390625 Z M 104.789062 72.632812 " clip-rule="nonzero"/></clipPath><clipPath id="05043ef3b6"><path d="M 157 53.0625 L 218 53.0625 L 218 81 L 157 81 Z M 157 53.0625 " clip-rule="nonzero"/></clipPath><clipPath id="4f37957cc8"><path d="M 114 99.542969 L 260.949219 99.542969 L 260.949219 254.0625 L 114 254.0625 Z M 114 99.542969 " clip-rule="nonzero"/></clipPath></defs><g clip-path="url(#90e51323b4)"><g clip-path="url(#4eeb85575d)"><path fill="#55996f" d="M 330.902344 143.570312 C 330.902344 222.78125 187.464844 375.277344 187.464844 375.277344 C 187.464844 375.277344 44.027344 222.78125 44.027344 143.570312 C 44.027344 64.351562 108.246094 0.136719 187.460938 0.136719 C 266.675781 0.136719 330.902344 64.351562 330.902344 143.570312 Z M 330.902344 143.570312 " fill-opacity="1" fill-rule="nonzero"/></g></g><g clip-path="url(#742ffd1fcd)"><path fill="#ffffff" d="M 261.015625 91.332031 L 113.980469 91.332031 C 108.902344 91.332031 104.789062 87.21875 104.789062 82.144531 C 104.789062 77.070312 108.902344 72.953125 113.980469 72.953125 L 261.015625 72.953125 C 266.09375 72.953125 270.207031 77.070312 270.207031 82.144531 C 270.207031 87.21875 266.09375 91.332031 261.015625 91.332031 " fill-opacity="1" fill-rule="nonzero"/></g><g clip-path="url(#05043ef3b6)"><path fill="#ffffff" d="M 212.425781 80.128906 C 209.644531 80.128906 207.386719 77.875 207.386719 75.09375 L 207.386719 63.132812 L 167.355469 63.132812 L 167.355469 75.09375 C 167.355469 77.875 165.101562 80.128906 162.320312 80.128906 C 159.539062 80.128906 157.285156 77.875 157.285156 75.09375 L 157.285156 59.367188 C 157.285156 55.703125 160.558594 53.0625 164.898438 53.0625 L 210.054688 53.0625 C 214.273438 53.0625 217.460938 55.703125 217.460938 59.367188 L 217.460938 75.09375 C 217.460938 77.875 215.207031 80.128906 212.425781 80.128906 " fill-opacity="1" fill-rule="nonzero"/></g><g clip-path="url(#4f37957cc8)"><path fill="#ffffff" d="M 233.4375 116.652344 L 223.871094 237.507812 C 223.730469 239.285156 222.242188 240.636719 220.484375 240.636719 C 220.394531 240.636719 220.304688 240.632812 220.210938 240.628906 C 218.339844 240.480469 216.945312 238.84375 217.09375 236.96875 L 226.660156 116.117188 C 226.808594 114.246094 228.445312 112.847656 230.316406 112.996094 C 232.1875 113.144531 233.585938 114.78125 233.4375 116.652344 Z M 190.773438 237.398438 C 190.769531 239.273438 189.246094 240.890625 187.371094 240.890625 C 187.371094 240.890625 187.371094 240.890625 187.367188 240.890625 C 185.492188 240.636719 183.972656 239.238281 183.972656 237.359375 L 184.101562 116.570312 C 184.101562 114.695312 185.621094 113.238281 187.5 113.238281 C 189.378906 113.238281 190.898438 114.667969 190.898438 116.546875 Z M 154.78125 240.628906 C 154.691406 240.632812 154.601562 240.636719 154.511719 240.636719 C 152.753906 240.636719 151.269531 239.285156 151.128906 237.507812 L 141.558594 116.652344 C 141.410156 114.78125 142.808594 113.144531 144.679688 112.996094 C 146.550781 112.851562 148.1875 114.246094 148.335938 116.117188 L 157.90625 236.96875 C 158.050781 238.84375 156.652344 240.480469 154.78125 240.628906 Z M 114.101562 99.640625 L 129.667969 244.230469 C 130.316406 249.734375 135.378906 254.234375 140.917969 254.234375 L 234.078125 254.234375 C 239.617188 254.234375 244.679688 249.734375 245.328125 244.230469 L 260.894531 99.640625 L 114.101562 99.640625 " fill-opacity="1" fill-rule="nonzero"/></g></svg>