<svg xmlns="http://www.w3.org/2000/svg" xmlns:xlink="http://www.w3.org/1999/xlink" width="500" zoomAndPan="magnify" viewBox="0 0 375 374.999991" height="500" preserveAspectRatio="xMidYMid meet" version="1.0"><defs><clipPath id="dd676d7360"><path d="M 44 0 L 331 0 L 331 375 L 44 375 Z M 44 0 " clip-rule="nonzero"/></clipPath><clipPath id="3df5e967c1"><path d="M 43.59375 75 L 43.59375 300 C 43.59375 341.421875 77.171875 375 118.59375 375 L 256.40625 375 C 297.828125 375 331.40625 341.421875 331.40625 300 L 331.40625 75 C 331.40625 33.578125 297.828125 0 256.40625 0 L 118.59375 0 C 77.171875 0 43.59375 33.578125 43.59375 75 Z M 43.59375 75 " clip-rule="nonzero"/></clipPath><clipPath id="a8c3195dc4"><path d="M 123.5625 90.488281 L 251.4375 90.488281 L 251.4375 104.988281 L 123.5625 104.988281 Z M 123.5625 90.488281 " clip-rule="nonzero"/></clipPath><clipPath id="bafbb88a40"><path d="M 164 75.359375 L 211 75.359375 L 211 97 L 164 97 Z M 164 75.359375 " clip-rule="nonzero"/></clipPath><clipPath id="ba0adcdbf8"><path d="M 130.496094 111.292969 L 244.28125 111.292969 L 244.28125 230.609375 L 130.496094 230.609375 Z M 130.496094 111.292969 " clip-rule="nonzero"/></clipPath></defs><g clip-path="url(#dd676d7360)"><g clip-path="url(#3df5e967c1)"><path fill="#3cc56d" d="M 330.902344 143.570312 C 330.902344 222.78125 187.464844 375.277344 187.464844 375.277344 C 187.464844 375.277344 44.027344 222.78125 44.027344 143.570312 C 44.027344 64.351562 108.246094 0.136719 187.460938 0.136719 C 266.675781 0.136719 330.902344 64.351562 330.902344 143.570312 Z M 330.902344 143.570312 " fill-opacity="1" fill-rule="nonzero"/></g></g><g clip-path="url(#a8c3195dc4)"><path fill="#ffffff" d="M 244.332031 104.945312 L 130.664062 104.945312 C 126.742188 104.945312 123.5625 101.765625 123.5625 97.839844 C 123.5625 93.917969 126.742188 90.738281 130.664062 90.738281 L 244.332031 90.738281 C 248.257812 90.738281 251.4375 93.917969 251.4375 97.839844 C 251.4375 101.765625 248.257812 104.945312 244.332031 104.945312 " fill-opacity="1" fill-rule="nonzero"/></g><g clip-path="url(#bafbb88a40)"><path fill="#ffffff" d="M 206.769531 96.285156 C 204.617188 96.285156 202.875 94.542969 202.875 92.390625 L 202.875 83.144531 L 171.929688 83.144531 L 171.929688 92.390625 C 171.929688 94.542969 170.1875 96.285156 168.035156 96.285156 C 165.886719 96.285156 164.144531 94.542969 164.144531 92.390625 L 164.144531 80.234375 C 164.144531 77.402344 166.671875 75.359375 170.027344 75.359375 L 204.933594 75.359375 C 208.199219 75.359375 210.660156 77.402344 210.660156 80.234375 L 210.660156 92.390625 C 210.660156 94.542969 208.917969 96.285156 206.769531 96.285156 " fill-opacity="1" fill-rule="nonzero"/></g><g clip-path="url(#ba0adcdbf8)"><path fill="#ffffff" d="M 223.011719 124.519531 L 215.617188 217.945312 C 215.507812 219.320312 214.355469 220.367188 213 220.367188 C 212.929688 220.367188 212.859375 220.363281 212.789062 220.359375 C 211.34375 220.242188 210.261719 218.976562 210.378906 217.53125 L 217.773438 124.105469 C 217.886719 122.660156 219.15625 121.578125 220.601562 121.691406 C 222.046875 121.808594 223.128906 123.074219 223.011719 124.519531 Z M 190.03125 217.863281 C 190.027344 219.3125 188.851562 220.5625 187.402344 220.5625 C 187.402344 220.5625 187.398438 220.5625 187.398438 220.5625 C 185.949219 220.367188 184.773438 219.285156 184.773438 217.832031 L 184.871094 124.457031 C 184.875 123.003906 186.050781 121.878906 187.5 121.878906 C 187.5 121.878906 187.5 121.878906 187.503906 121.878906 C 188.953125 121.878906 190.128906 122.984375 190.128906 124.4375 Z M 162.207031 220.359375 C 162.136719 220.363281 162.066406 220.367188 162 220.367188 C 160.640625 220.367188 159.492188 219.320312 159.382812 217.945312 L 151.984375 124.519531 C 151.871094 123.074219 152.953125 121.808594 154.398438 121.691406 C 155.84375 121.578125 157.109375 122.660156 157.222656 124.105469 L 164.621094 217.53125 C 164.734375 218.976562 163.65625 220.242188 162.207031 220.359375 Z M 130.761719 111.367188 L 142.792969 223.144531 C 143.296875 227.398438 147.210938 230.875 151.492188 230.875 L 223.507812 230.875 C 227.789062 230.875 231.703125 227.398438 232.203125 223.144531 L 244.238281 111.367188 L 130.761719 111.367188 " fill-opacity="1" fill-rule="nonzero"/></g></svg>